<?xml version="1.0" standalone="no"?>
<!DOCTYPE svg PUBLIC "-//W3C//DTD SVG 1.1//EN" "http://www.w3.org/Graphics/SVG/1.1/DTD/svg11.dtd" >
<svg xmlns="http://www.w3.org/2000/svg">
<metadata></metadata>
<defs>
<font id="drogowskazbold" horiz-adv-x="670" >
<font-face units-per-em="2048" ascent="1536" descent="-512" />
<missing-glyph horiz-adv-x="798" />
<glyph horiz-adv-x="0" />
<glyph horiz-adv-x="0" />
<glyph unicode=" "  horiz-adv-x="798" />
<glyph unicode="&#x09;" horiz-adv-x="798" />
<glyph unicode="&#xa0;" horiz-adv-x="798" />
<glyph unicode="!" horiz-adv-x="521" d="M128 0v266h266v-266h-266zM128 532v1065h266v-1065h-266z" />
<glyph unicode="%" horiz-adv-x="1398" d="M12 1270q0 71 27 132t73 106t106.5 71.5t130.5 26.5q71 0 131.5 -26.5t106 -71.5t72 -106.5t26.5 -131.5q0 -71 -26.5 -133t-72 -107.5t-106.5 -71t-131 -25.5t-130.5 25.5t-106.5 71t-73 107.5t-27 133zM66 -28l952 1597h248l-955 -1597h-245zM228 1254 q0 -51 36.5 -84.5t84.5 -33.5q49 0 86.5 35.5t37.5 91.5q0 53 -37.5 89t-86.5 36q-48 0 -84.5 -34.5t-36.5 -83.5v-16zM713 323q0 71 26.5 133t72.5 106.5t107 71t131 26.5q71 0 131.5 -26.5t106 -71t72 -106.5t26.5 -133q0 -72 -26.5 -133.5t-72 -106.5t-106.5 -70 t-131 -25t-131 25t-107 70t-72.5 106.5t-26.5 133.5zM929 309q0 -51 36.5 -85.5t84.5 -34.5q49 0 86 36.5t37 91.5q0 53 -37 89.5t-86 36.5q-48 0 -84.5 -35.5t-36.5 -84.5v-14z" />
<glyph unicode="&#x26;" horiz-adv-x="1569" d="M102 522q0 92 30 171.5t82 144.5t121.5 114.5t150.5 78.5l-258 353v213h1093v-266h-709l988 -1331h-346l-159 217q-106 -136 -217.5 -190.5t-225.5 -54.5q-117 0 -218.5 42.5t-175 116.5t-115 175t-41.5 216zM392 522q0 -53 19.5 -101.5t54 -83t83 -55t103.5 -20.5 q90 0 164 49t113 138l-254 350q-59 -11 -110 -34t-89.5 -58.5t-61 -81.5t-22.5 -103z" />
<glyph unicode="(" horiz-adv-x="553" d="M-10 780q0 187 29.5 337.5t84 273.5t127 226.5t159.5 199.5l100 -104q-79 -79 -145 -175.5t-114 -211t-74.5 -251t-26.5 -295.5q0 -160 26.5 -296.5t74.5 -251t114 -211t145 -174.5l-100 -105q-87 96 -159.5 199.5t-127 227t-84 273t-29.5 338.5z" />
<glyph unicode=")" horiz-adv-x="553" d="M170 -153l100 -105q87 96 159.5 199.5t127 227t84 273t29.5 338.5q0 187 -29.5 337.5t-84 273.5t-127 226.5t-159.5 199.5l-100 -104q79 -79 145 -175.5t114 -211t74.5 -251t26.5 -295.5q0 -160 -26.5 -296.5t-74.5 -251t-114 -211t-145 -174.5z" />
<glyph unicode="+" horiz-adv-x="787" d="M43 516v208h247v247h208v-247h248v-208h-248v-248h-208v248h-247z" />
<glyph unicode="," horiz-adv-x="504" d="M79 -315l57 262v244h232v-244l-57 -262h-232z" />
<glyph unicode="-" horiz-adv-x="659" d="M43 516v208h575v-208h-575z" />
<glyph unicode="." horiz-adv-x="442" d="M89 0v266h267v-266h-267z" />
<glyph unicode="/" horiz-adv-x="644" d="M-21 -266l466 1863h222l-466 -1863h-222z" />
<glyph unicode="0" horiz-adv-x="1279" d="M85 833q0 134 27.5 264t70.5 251q26 68 70.5 126t104 100t132.5 65.5t151 23.5q79 0 150 -23.5t132 -64.5t105.5 -100t70.5 -127q43 -122 69.5 -251.5t26.5 -263.5t-26.5 -264t-69.5 -252q-26 -68 -70.5 -125.5t-105.5 -100t-132 -67t-150 -24.5t-150.5 24.5t-132 67 t-105 100.5t-70.5 125q-45 120 -71.5 251t-26.5 265zM349 833q0 -110 19.5 -215.5t50.5 -202.5q21 -63 81.5 -105t135.5 -42q80 0 138.5 42t79.5 105q32 96 50 201.5t18 216.5q0 113 -18 217t-50 202q-21 62 -79.5 103.5t-138.5 41.5q-76 0 -135.5 -41t-81.5 -104 q-32 -98 -51 -202t-19 -217z" />
<glyph unicode="1" d="M10 1130v212q69 0 126 10.5t101 39.5t71 78.5t35 126.5h200v-1597h-266v1130h-267z" />
<glyph unicode="2" horiz-adv-x="1102" d="M85 0v171l577 736q26 34 57 89.5t31 133.5q0 41 -17 78.5t-45 64t-66.5 42.5t-78.5 16q-69 0 -118 -28.5t-81.5 -67t-50.5 -79t-23 -61.5l-185 208q28 53 70.5 105.5t99 94t129 68t159.5 26.5q96 0 182 -36t151 -100t102.5 -149t37.5 -182q0 -61 -14 -117t-34.5 -106.5 t-46 -91t-47.5 -69.5l-384 -480h528v-266h-933z" />
<glyph unicode="3" horiz-adv-x="1234" d="M85 532h267q0 -55 21 -102.5t57.5 -84t84.5 -58t103 -21.5q53 0 102 21.5t85 58t57.5 84t21.5 102.5q0 56 -21.5 102.5t-57.5 80t-85 52.5t-102 19q-11 0 -23 -1t-22 -1q-12 -2 -24 -2v236q11 -2 24 -4q10 -2 22 -2h23q81 0 139 52t58 135q0 41 -15.5 77t-42.5 64t-63 44 t-76 16q-43 0 -79.5 -16t-63 -44t-42.5 -64t-16 -77h-266q0 96 36.5 180t100.5 148t149 100t181 36q95 0 179.5 -36t148.5 -100t100 -148t36 -180q0 -81 -28 -154.5t-72 -124.5q75 -68 121.5 -170t46.5 -218q0 -110 -42.5 -207t-115 -169.5t-169.5 -114t-205 -41.5 q-110 0 -207.5 41.5t-170 114t-114 169.5t-41.5 207z" />
<glyph unicode="4" horiz-adv-x="1193" d="M32 398v267l667 932h295v-932h199l-67 -267h-132v-398h-266v398h-696zM328 665h400v560z" />
<glyph unicode="5" horiz-adv-x="1162" d="M85 66l23 266l396 -62q11 -4 21 -4h20q53 0 102.5 20.5t85.5 57t57 85t21 103.5q0 56 -21 104.5t-57 85t-85.5 57t-102.5 20.5h-400l66 798h799v-266h-557v4l-22 -280q30 4 57.5 7t56.5 3q108 0 205.5 -42.5t169.5 -115t114.5 -169.5t42.5 -206q0 -110 -42.5 -207 t-114.5 -169.5t-169 -114t-206 -41.5q-21 0 -40 2t-41 4z" />
<glyph unicode="6" horiz-adv-x="1191" d="M63 532q0 73 19.5 141.5t55.5 129.5l510 860h309l-361 -608q115 0 212 -41t168.5 -112t111.5 -166t40 -204q0 -110 -41 -207t-113.5 -169.5t-170 -114t-207.5 -41.5q-108 0 -205 41.5t-169.5 114t-115.5 169.5t-43 207zM330 532q0 -55 21 -105.5t57.5 -86t84.5 -57 t103 -21.5t103.5 21.5t84.5 57t57 86t21 105.5q0 56 -21 104.5t-57 85t-84.5 57t-103.5 20.5t-103 -20.5t-84.5 -57t-57.5 -85t-21 -104.5z" />
<glyph unicode="7" horiz-adv-x="964" d="M0 1331v266h933v-183l-514 -1414h-285l486 1331h-620z" />
<glyph unicode="8" horiz-adv-x="1234" d="M85 498q0 116 43 214.5t117 173.5q-91 118 -92 279q0 95 36.5 180.5t100.5 148.5t148 100.5t180 37.5q95 0 180.5 -37.5t149.5 -100.5t100 -148.5t36 -180.5q0 -81 -24.5 -151.5t-69.5 -127.5q75 -75 117.5 -173.5t42.5 -214.5q0 -110 -41.5 -207.5t-114 -169.5 t-169.5 -113.5t-207 -41.5q-108 0 -205.5 41.5t-169.5 113.5t-115 169.5t-43 207.5zM352 498q0 -55 21 -103t57.5 -84t84.5 -57.5t103 -21.5t103 21.5t84 57.5t57.5 84t21.5 103t-21.5 103.5t-57.5 83.5t-84 55t-103 20t-103 -20t-84.5 -55t-57.5 -83.5t-21 -103.5z M419 1165q0 -43 16 -78t42.5 -61.5t63 -41.5t77.5 -15q83 0 141 56.5t58 139.5q0 40 -15.5 76.5t-42 64t-64 44t-77.5 16.5q-41 0 -77.5 -16.5t-63 -44t-42.5 -64t-16 -76.5z" />
<glyph unicode="9" horiz-adv-x="1191" d="M193 1131q0 110 41 207t113.5 169.5t170 114t207.5 41.5q108 0 205 -41.5t169.5 -114t115.5 -169.5t43 -207q0 -73 -19.5 -141.5t-55.5 -129.5l-510 -860h-309l361 608q-115 0 -212 41t-168.5 112t-111.5 166t-40 204zM459 1131q0 -56 21 -104.5t57 -85t84.5 -57 t103.5 -20.5t103 20.5t84.5 57t57.5 85t21 104.5q0 55 -21 105.5t-57.5 86t-84.5 57t-103 21.5t-103.5 -21.5t-84.5 -57t-57 -86t-21 -105.5z" />
<glyph unicode=":" horiz-adv-x="442" d="M89 0v266h267v-266h-267zM89 815v267h267v-267h-267z" />
<glyph unicode=";" horiz-adv-x="442" d="M47 -315l57 262v244h233v-244l-58 -262h-232zM89 815v267h267v-267h-267z" />
<glyph unicode="=" horiz-adv-x="787" d="M43 307v209h703v-209h-703zM43 724v209h703v-209h-703z" />
<glyph unicode="?" horiz-adv-x="823" d="M12 1520q90 37 193.5 57t213.5 20q90 0 162.5 -27.5t122.5 -75t77.5 -116t27.5 -147.5q0 -81 -20 -140.5t-51 -107.5t-66.5 -87.5t-66 -80t-50.5 -86.5t-20 -105v-112h-267v112q-2 73 18.5 127t50 98.5t65 84t66 80.5t51 87.5t20.5 105.5q0 75 -51 100.5t-121.5 21.5 t-145 -26.5t-121.5 -42.5zM268 0v266h267v-266h-267z" />
<glyph unicode="@" horiz-adv-x="1750" d="M-15 571q0 179 68.5 340.5t187.5 284.5t280.5 194t352.5 71q187 0 349.5 -71t283.5 -194t189 -284.5t68 -340.5q0 -153 -58 -302t-190 -314l-323 60l-30 158q-62 -49 -136.5 -75.5t-150.5 -26.5q-100 0 -189 38t-154.5 104t-104 154.5t-38.5 190.5q0 100 38.5 189.5 t103 155.5t153 104.5t191.5 38.5q102 0 191 -38.5t154 -104.5t103.5 -155.5t38.5 -189.5v-192l27 -187q64 83 103 182t39 210q0 136 -52.5 256t-143 209.5t-209.5 142t-253 52.5q-135 0 -255.5 -52.5t-210 -142t-141.5 -209.5t-52 -256q0 -134 51 -253.5t139.5 -209 t209 -141.5t259.5 -52q61 0 130 15t144 42l32 -232q-79 -28 -156 -42.5t-150 -14.5q-179 0 -341.5 68t-283.5 187t-192.5 281.5t-71.5 351.5zM641 558q0 -48 18 -91t50.5 -75t75 -51.5t91.5 -19.5q46 0 89 19.5t74.5 51.5t51 75t19.5 91q0 49 -18.5 92t-50 74.5t-74 51 t-91.5 19.5t-91.5 -19.5t-75 -51t-50.5 -74.5t-18 -92z" />
<glyph unicode="A" horiz-adv-x="1422" d="M43 0l532 1597h266l533 -1597h-266l-135 398h-532l-132 -398h-266zM535 665h353l-177 532z" />
<glyph unicode="B" horiz-adv-x="1326" d="M138 4v1598h780q111 -79 177 -200.5t66 -265.5q0 -81 -21.5 -155t-59.5 -135q68 -75 106.5 -173t38.5 -206q0 -147 -67 -268.5t-176 -198.5l2 4h-846zM402 931h415q37 40 57 91t20 108q0 58 -20 109.5t-57 91.5h-415v-400zM405 270h483q37 41 57 91t20 108q0 57 -20 108 t-57 92h-483v-399z" />
<glyph unicode="C" horiz-adv-x="1422" d="M0 792q0 173 65 324.5t178 264t264 177.5t324 65q147 0 279 -47t240 -131l-129 -240q-75 73 -174.5 114.5t-211.5 41.5q-117 0 -220 -44.5t-180 -121.5t-122 -180t-45 -220q0 -118 45 -220t122 -179t180 -121.5t220 -44.5q113 0 212 41.5t174 114.5l129 -239v-7 q-108 -87 -240 -134t-279 -47q-173 0 -324 65t-264 179t-178 265.5t-65 323.5z" />
<glyph unicode="D" horiz-adv-x="1435" d="M136 0v1597h633q130 -38 239.5 -113.5t189.5 -181t125 -233.5t45 -270q0 -143 -45 -271t-125 -233.5t-189.5 -181t-239.5 -113.5h-633zM398 266h326l-2 -6q83 30 151 82t118 122.5t78 154.5t28 176q0 91 -28 175.5t-78 154.5t-118 123t-149 83h-326v-1065z" />
<glyph unicode="E" horiz-adv-x="1069" d="M136 0v1597h866v-266h-600v-400h465v-266h-465v-399h600v-266h-866z" />
<glyph unicode="F" horiz-adv-x="937" d="M136 0v1597h866v-266h-600v-400h465v-266h-465v-665h-266z" />
<glyph unicode="G" horiz-adv-x="1634" d="M6 795q0 172 65 323.5t178 265.5t264.5 179t323.5 65q160 0 303.5 -56t252.5 -158l-139 -232q-79 86 -186 135t-233 49q-117 0 -220 -45t-180 -122t-122 -180t-45 -220q0 -118 43 -221t119 -180t179.5 -121.5t225.5 -44.5q126 0 225 44.5t173 121.5v267h-432v266h699 v-630q-49 -71 -117 -133t-152.5 -106.5t-184 -71t-209.5 -26.5q-172 0 -323.5 65t-264.5 177.5t-178 264t-65 324.5z" />
<glyph unicode="H" horiz-adv-x="1469" d="M136 0v1597h266v-666h665v666h266v-1597h-266v665h-665v-665h-266z" />
<glyph unicode="I" horiz-adv-x="536" d="M61 0v266h75v1065h-75v266h414v-266h-73v-1065h73v-266h-414z" />
<glyph unicode="J" horiz-adv-x="902" d="M2 366h266q0 -55 39.5 -94.5t94.5 -39.5q56 0 94.5 39.5t38.5 94.5v1231h266v-1231q0 -83 -31 -155.5t-85.5 -126.5t-126.5 -86t-156 -32q-83 0 -155 32t-126.5 86t-86.5 126.5t-32 155.5z" />
<glyph unicode="K" horiz-adv-x="1281" d="M136 0v1597h266v-615h100l476 615h332l-575 -751l598 -846h-331l-500 713h-100v-713h-266z" />
<glyph unicode="L" horiz-adv-x="1002" d="M136 0v1597h266v-1331h600v-266h-866z" />
<glyph unicode="M" horiz-adv-x="1848" d="M126 0l65 1597h267l467 -977l465 977h267l66 -1597h-266l-43 1029l-489 -1029l-490 1029l-43 -1029h-266z" />
<glyph unicode="N" horiz-adv-x="1535" d="M136 0v1597h266l732 -1111v1111h266v-1597h-266l-732 1114v-1114h-266z" />
<glyph unicode="O" horiz-adv-x="1669" d="M2 799q0 172 65 323.5t179 265.5t265 179t324 65t324 -65t264 -179t178 -265.5t65 -323.5q0 -173 -65 -324.5t-178 -265t-264 -178.5t-324 -65t-324 65t-265 178.5t-179 265t-65 324.5zM268 799q0 -118 45 -221t122 -180t180 -121.5t220 -44.5q118 0 221 44.5 t179.5 121.5t120.5 180t44 221q0 117 -44 220t-120.5 180t-180 122t-220.5 45t-220 -45t-180 -122t-122 -180t-45 -220z" />
<glyph unicode="P" horiz-adv-x="1130" d="M136 0v1597h773q55 -38 103.5 -91t85 -116t56 -134t19.5 -146t-19.5 -145.5t-55 -134.5t-82.5 -117t-102 -91h-512v-622h-266zM402 867h411q35 37 65.5 95t30.5 137t-30.5 137.5t-65.5 94.5h-411v-464z" />
<glyph unicode="Q" horiz-adv-x="1735" d="M-4 803q0 173 65 324t179 264t265 178t324 65t323.5 -65t263.5 -178t178 -264t65 -324t-62.5 -322t-173.5 -262l236 -282h-344l-105 126q-86 -44 -181.5 -68.5t-197.5 -24.5q-173 0 -324 65t-264 179t-178 265t-65 324h-4zM266 803q0 -118 44 -221t120 -179.5 t179.5 -121.5t221.5 -45q108 0 206 36l-326 397h348l197 -243q69 75 106.5 170t37.5 203q0 117 -44 220t-120.5 180t-180 122t-220.5 45t-220 -45t-180 -122t-122 -180t-45 -220z" />
<glyph unicode="R" horiz-adv-x="1313" d="M142 0v1597h787q108 -77 175 -198t67 -269q0 -140 -62.5 -258t-167.5 -197l396 -675h-311l-387 665h-230v-665h-267zM409 931h422q36 40 56 91t20 108q0 58 -20 109.5t-56 91.5h-422v-400z" />
<glyph unicode="S" horiz-adv-x="1222" d="M77 79l87 260q55 -24 118 -42t124 -29.5t115 -18.5t93 -7q61 0 106.5 16.5t76 43t44 61.5t13.5 72q0 49 -23.5 97.5t-86.5 81.5l-327 166q-117 59 -177.5 160t-60.5 229q0 79 27.5 157t85 139.5t144 100t203.5 38.5q57 0 148 -9.5t184 -31.5v-283q-42 13 -87 22.5 t-86.5 16t-77 9.5t-60.5 3q-113 0 -163 -47.5t-50 -110.5q0 -43 23.5 -86t87.5 -75l322 -164q119 -60 181.5 -170.5t62.5 -236.5q0 -81 -29.5 -165.5t-91.5 -151.5t-156.5 -109.5t-226.5 -42.5q-49 0 -114 6.5t-137.5 19t-147 33t-144.5 48.5z" />
<glyph unicode="T" horiz-adv-x="802" d="M-130 1331v266h1065v-266h-400v-1331h-267v1331h-398z" />
<glyph unicode="U" horiz-adv-x="1226" d="M83 498v1099h266v-1099q0 -55 21.5 -103t57.5 -84t84.5 -57.5t103.5 -21.5q53 0 101.5 21.5t85 57.5t58 84t21.5 103v1099h266v-1099q0 -108 -42.5 -205t-115 -169.5t-169.5 -115t-205 -42.5q-111 0 -208 42.5t-169.5 115t-114 169.5t-41.5 205z" />
<glyph unicode="V" horiz-adv-x="1069" d="M-63 1597h266l332 -1141l332 1141h267l-465 -1597h-267z" />
<glyph unicode="W" horiz-adv-x="1735" d="M-63 1597h266l266 -1065l266 1065h267l266 -1065l266 1065h266l-400 -1597h-266l-267 1065l-266 -1065h-266z" />
<glyph unicode="X" horiz-adv-x="937" d="M-100 0l415 799l-413 798h287l267 -508l266 508h298l-411 -798l415 -799h-300l-262 509l-264 -509h-298z" />
<glyph unicode="Y" horiz-adv-x="937" d="M-124 1597h297l300 -603l298 603h302l-464 -932v-665h-266v665z" />
<glyph unicode="Z" horiz-adv-x="1073" d="M73 0v132l573 1199h-573v266h933v-134l-573 -1197h573v-266h-933z" />
<glyph unicode="_" horiz-adv-x="721" d="M-21 -230h765v-164h-765v164z" />
<glyph unicode="a" horiz-adv-x="1262" d="M61 532q0 109 42 206t113 169.5t168.5 115t207.5 42.5q73 0 142 -25.5t124 -66.5v92h266v-805l77 -260h-260l-38 120q-62 -56 -143 -88t-166 -32q-108 0 -205 41.5t-169.5 114t-115.5 169.5t-43 207zM326 532q0 -55 21 -105.5t57.5 -86t84.5 -57t103 -21.5t103.5 21.5 t84 57t57 86t21.5 105.5q0 56 -21.5 104.5t-57 86t-83.5 59t-104 21.5q-55 0 -103 -21.5t-84.5 -59t-57.5 -86t-21 -104.5z" />
<glyph unicode="b" horiz-adv-x="1262" d="M136 0v1597h266v-624q54 39 123 65.5t144 26.5q108 0 205 -41.5t169.5 -114t115 -169.5t42.5 -208q0 -110 -42.5 -207t-115 -169.5t-169 -114t-205.5 -41.5q-75 0 -144 26.5t-123 65.5v-92h-266zM402 532q0 -55 21.5 -105.5t58 -86t84.5 -57t103 -21.5q53 0 102 21.5 t85 57t57.5 86t21.5 105.5q0 56 -21.5 104.5t-57.5 86t-85 59t-102 21.5q-55 0 -103 -21.5t-84.5 -59t-58 -86t-21.5 -104.5z" />
<glyph unicode="c" horiz-adv-x="1032" d="M66 532q0 118 45 221t121.5 180t180 121.5t219.5 44.5q90 0 171 -26.5t149 -73.5l-100 -249q-41 34 -96 58.5t-124 24.5q-63 0 -117.5 -23.5t-94.5 -64t-64 -96t-24 -117.5q0 -61 24 -116.5t64 -96t94.5 -64t117.5 -23.5q39 0 76.5 11t68 25.5t53 31.5t34.5 30l120 -241 q-73 -57 -162 -90t-190 -33q-117 0 -220 44.5t-179.5 121.5t-121.5 180t-45 220z" />
<glyph unicode="d" horiz-adv-x="1262" d="M61 532q0 111 43 208t115.5 169.5t169.5 114t205 41.5q75 0 144 -26.5t122 -65.5v624h266v-1597h-266v92q-53 -39 -122 -65.5t-144 -26.5q-108 0 -205 41.5t-169.5 114t-115.5 169.5t-43 207zM328 532q0 -55 21 -105.5t57.5 -86t84.5 -57t103 -21.5t103.5 21.5t84 57 t57 86t21.5 105.5q0 56 -21.5 104.5t-57 86t-83.5 59t-104 21.5q-55 0 -103 -21.5t-84.5 -59t-57.5 -86t-21 -104.5z" />
<glyph unicode="e" horiz-adv-x="1154" d="M69 532q0 118 44.5 221t121 180t180 121.5t219.5 44.5q147 0 267.5 -67t199.5 -180v-419h-752q33 -90 109.5 -145.5t173.5 -55.5q53 0 124 5t134 13q75 8 151 16l-140 -266q-64 -12 -109.5 -19t-77 -10t-49 -4t-31.5 -1q-117 0 -220 44.5t-179.5 121.5t-121 180 t-44.5 220zM352 632h566q-28 90 -106.5 145.5t-177.5 55.5q-97 0 -175.5 -55.5t-106.5 -145.5z" />
<glyph unicode="f" horiz-adv-x="802" d="M36 799v266h167q0 258 134 395t393 137h39v-257h-34q-57 0 -106.5 -14t-84.5 -47t-55 -85t-20 -129h300v-266h-300v-799h-266v799h-167z" />
<glyph unicode="g" horiz-adv-x="1262" d="M61 532q0 109 43 206t115.5 169.5t169.5 115t205 42.5q75 0 152 -26.5t123 -62.5v89h257v-978q0 -110 -40 -207t-113.5 -169.5t-175.5 -114t-224 -41.5q-89 0 -170.5 28.5t-148.5 77.5l157 209q34 -24 83 -38.5t94 -14.5q72 0 125 24.5t88.5 63t53 87.5t17.5 100 q-54 -39 -124.5 -65.5t-153.5 -26.5q-108 0 -205 41.5t-169.5 114t-115.5 169.5t-43 207zM328 532q0 -55 21 -105.5t57.5 -86t84.5 -57t103 -21.5t103.5 21.5t84 57t57 86t21.5 105.5q0 56 -21.5 104.5t-57 86t-83.5 59t-104 21.5q-55 0 -103 -21.5t-84.5 -59t-57.5 -86 t-21 -104.5z" />
<glyph unicode="h" horiz-adv-x="1203" d="M136 0v1597h266v-634q54 47 121 74.5t146 27.5q83 0 155 -31.5t127 -86.5t85.5 -127t30.5 -155v-665h-266v598q0 41 -16 78t-42.5 63.5t-64 43t-77.5 16.5t-76.5 -16.5t-63 -43t-43 -63.5t-16.5 -78v-598h-266z" />
<glyph unicode="i" horiz-adv-x="532" d="M106 1412q0 66 47.5 112.5t112.5 46.5q66 0 113 -46.5t47 -112.5q0 -65 -47 -112.5t-113 -47.5q-65 0 -112.5 47.5t-47.5 112.5zM134 0v1065h266v-1065h-266z" />
<glyph unicode="j" horiz-adv-x="536" d="M-130 -266q53 0 102 21t85.5 57.5t57.5 84.5t21 103v1065h266v-1065q0 -96 -30.5 -180t-85 -153t-129 -117t-161.5 -70zM108 1412q0 66 47.5 112.5t112.5 46.5q66 0 113 -46.5t47 -112.5q0 -65 -46.5 -112.5t-113.5 -47.5q-65 0 -112.5 47.5t-47.5 112.5z" />
<glyph unicode="k" horiz-adv-x="1145" d="M128 0v1597h266v-928h100l298 396h332l-398 -533l398 -532h-332l-298 400h-100v-400h-266z" />
<glyph unicode="l" horiz-adv-x="536" d="M136 0v1597h266v-1597h-266z" />
<glyph unicode="m" horiz-adv-x="1735" d="M136 0v1065h254v-149q38 71 114.5 110t164.5 39q75 0 143 -33t106 -89q49 55 124.5 88.5t158.5 33.5t155.5 -31.5t127 -86.5t85.5 -127t31 -155v-665h-267v632q0 71 -47.5 119t-118.5 48t-118 -48t-47 -119v-632h-267v632q0 71 -48 119t-118 48q-71 0 -119 -48t-48 -119 v-632h-266z" />
<glyph unicode="n" horiz-adv-x="1203" d="M136 0v1065h266v-102q54 47 121 74.5t146 27.5q83 0 155 -31.5t127 -86.5t85.5 -127t30.5 -155v-665h-266v598q0 41 -16 78t-42.5 63.5t-64 43t-77.5 16.5t-76.5 -16.5t-63 -43t-43 -63.5t-16.5 -78v-598h-266z" />
<glyph unicode="o" horiz-adv-x="1268" d="M69 532q0 118 44.5 221t121 180t180 121.5t219.5 44.5q118 0 221.5 -44.5t180 -121.5t121 -180t44.5 -221q0 -117 -44.5 -220t-121 -180t-180 -121.5t-221.5 -44.5q-117 0 -220 44.5t-179.5 121.5t-121 180t-44.5 220zM335 532q0 -61 23.5 -116.5t63.5 -96t95.5 -64 t116.5 -23.5q62 0 117.5 23.5t96 64t64 96t23.5 116.5q0 62 -23.5 117.5t-64 96t-95.5 64t-118 23.5q-61 0 -116.5 -23.5t-95.5 -64t-63.5 -96t-23.5 -117.5z" />
<glyph unicode="p" horiz-adv-x="1262" d="M136 -426v1491h266v-92q54 39 123 65.5t144 26.5q108 0 205 -41.5t169.5 -114t115 -169.5t42.5 -208q0 -110 -42.5 -207t-115 -169.5t-169 -114t-205.5 -41.5q-75 0 -144 26.5t-123 65.5v-518h-266zM402 532q0 -55 21.5 -105.5t58 -86t84.5 -57t103 -21.5q53 0 102 21.5 t85 57t57.5 86t21.5 105.5q0 56 -21.5 104.5t-57.5 86t-85 59t-102 21.5q-55 0 -103 -21.5t-84.5 -59t-58 -86t-21.5 -104.5z" />
<glyph unicode="q" horiz-adv-x="1266" d="M66 532q0 111 42.5 208t115 169.5t169.5 114t205 41.5q75 0 144 -26.5t122 -65.5v92h266v-1491h-266v518q-53 -39 -122 -65.5t-144 -26.5q-108 0 -205 41.5t-169.5 114t-115 169.5t-42.5 207zM332 532q0 -55 21 -105.5t57.5 -86t84.5 -57t103 -21.5t103.5 21.5t85 57 t57 86t20.5 105.5q0 56 -20.5 104.5t-57 86t-84.5 59t-104 21.5q-55 0 -103 -21.5t-84.5 -59t-57.5 -86t-21 -104.5z" />
<glyph unicode="r" d="M130 0v1065h254v-110q16 30 49.5 55t74.5 42q40 17 90 21q12 1 25 1q37 0 74 -9v-277q-11 2 -28 7q-15 4 -36 6t-50 2q-95 0 -141 -53t-46 -130v-620h-266z" />
<glyph unicode="s" horiz-adv-x="870" d="M49 47l85 236q39 -13 86.5 -25.5t95.5 -21t90.5 -14t72.5 -5.5q49 0 79 19.5t37.5 47t-8.5 58t-59 56.5l-205 116q-72 42 -125 104t-53 164q0 71 26.5 129t74.5 99.5t115 65t148 23.5q20 0 53.5 -2t71 -5t74 -10t61.5 -13v-252q-41 9 -86 18q-38 6 -87 11.5t-98 5.5 q-42 0 -66.5 -17.5t-29 -40.5t12 -50.5t56.5 -46.5l187 -92q64 -32 104.5 -67.5t64 -72.5t32 -76.5t8.5 -79.5q0 -73 -25 -136t-73.5 -108.5t-123 -72t-172.5 -26.5q-45 0 -98.5 5t-109.5 16t-112.5 26t-103.5 34z" />
<glyph unicode="t" horiz-adv-x="746" d="M10 799v266h201v283l262 249v-532h200v-266h-200v-401q0 -55 39 -93.5t95 -38.5h141l-139 -266q-83 0 -155 30.5t-127 85.5t-85.5 127t-30.5 155v401h-201z" />
<glyph unicode="u" horiz-adv-x="1109" d="M89 433v632h267v-632q0 -41 16 -77.5t42.5 -64t63 -43.5t78.5 -16q41 0 77 16t62.5 43.5t42.5 64t16 77.5v632h266v-632q0 -96 -36.5 -181.5t-100 -148t-147.5 -100t-180 -37.5q-95 0 -180.5 37.5t-149.5 100t-100.5 148t-36.5 181.5z" />
<glyph unicode="v" horiz-adv-x="937" d="M-19 1065h267l187 -586l34 -153l33 153l189 586h266l-356 -1065h-266z" />
<glyph unicode="w" horiz-adv-x="1469" d="M2 1065h266l128 -628l13 -122l26 122l166 628h266l168 -628l26 -122l12 122l128 628h266l-266 -1065h-266l-200 705l-200 -705h-267z" />
<glyph unicode="x" horiz-adv-x="1000" d="M-63 0l376 532l-376 533h321l217 -323l216 323h321l-378 -533l378 -532h-321l-216 326l-217 -326h-321z" />
<glyph unicode="y" horiz-adv-x="937" d="M-19 1065h267l191 -590l34 -160l31 160l187 590h266l-490 -1491h-266l134 426z" />
<glyph unicode="z" horiz-adv-x="860" d="M59 0v124l473 696h-451v245h852v-124l-473 -696h479v-245h-880z" />
<glyph horiz-adv-x="1154" d="M69 532q0 118 44.5 221t121 180t180 121.5t219.5 44.5q147 0 267.5 -67t199.5 -180v-419h-752q33 -90 109.5 -145.5t173.5 -55.5q53 0 124 5t134 13q75 8 151 16l-140 -266q-64 -12 -109.5 -19t-77 -10t-49 -4t-31.5 -1q-117 0 -220 44.5t-179.5 121.5t-121 180 t-44.5 220zM352 632h566q-28 90 -106.5 145.5t-177.5 55.5q-97 0 -175.5 -55.5t-106.5 -145.5zM528 1178l175 324h228l-181 -324h-222z" />
<glyph horiz-adv-x="1154" d="M69 532q0 118 44.5 221t121 180t180 121.5t219.5 44.5q147 0 267.5 -67t199.5 -180v-419h-752q33 -90 109.5 -145.5t173.5 -55.5q53 0 124 5t134 13q75 8 151 16l-140 -266q-64 -12 -109.5 -19t-77 -10t-49 -4t-31.5 -1q-117 0 -220 44.5t-179.5 121.5t-121 180 t-44.5 220zM352 632h566q-28 90 -106.5 145.5t-177.5 55.5q-97 0 -175.5 -55.5t-106.5 -145.5zM364 1178l162 324h224l159 -324h-193l-80 159l-75 -159h-197z" />
<glyph unicode="&#xa5;" horiz-adv-x="732" />
<glyph unicode="&#xa9;" horiz-adv-x="1735" d="M36 799q0 172 65 323.5t178 265.5t264.5 179t323.5 65q173 0 324 -65t264.5 -179t178.5 -265.5t65 -323.5q0 -173 -65 -324.5t-178.5 -265t-265 -178.5t-323.5 -65t-323.5 65t-264.5 178.5t-178 265t-65 324.5zM238 799q0 -130 49.5 -245t134 -200.5t200 -134 t245.5 -48.5t245 48.5t201.5 134t135.5 200.5t49 245t-49 245t-135.5 200t-202 134t-244.5 49q-130 0 -245.5 -49t-200 -134t-134 -200t-49.5 -245zM445 801q0 91 35.5 173.5t95.5 143t141.5 95.5t174.5 35q71 0 134 -21.5t118 -57.5l-81 -204q-32 32 -76 53t-95 21 q-49 0 -92.5 -18.5t-75 -51t-50 -76t-18.5 -92.5t18.5 -91.5t50 -74.5t75 -51t92.5 -19q55 0 102 22t77 63l98 -199q-55 -44 -126.5 -70.5t-150.5 -26.5q-93 0 -174.5 35t-141.5 95.5t-95.5 141.5t-35.5 175z" />
<glyph unicode="&#xab;" horiz-adv-x="470" d="M79 1178l175 324h228l-181 -324h-222z" />
<glyph unicode="&#xac;" horiz-adv-x="870" d="M53 1412q0 66 47 112.5t113 46.5t112.5 -46.5t46.5 -112.5q0 -65 -46.5 -112.5t-112.5 -47.5q-65 0 -112.5 47.5t-47.5 112.5zM502 1412q0 66 47 112.5t113 46.5t113.5 -46.5t47.5 -112.5q0 -65 -47.5 -112.5t-113.5 -47.5q-65 0 -112.5 47.5t-47.5 112.5z" />
<glyph unicode="&#xad;" horiz-adv-x="659" d="M43 516v208h575v-208h-575z" />
<glyph unicode="&#xc9;" horiz-adv-x="1583" d="M89 0v266h267v-266h-267zM660 0v266h267v-266h-267zM1231 0v266h267v-266h-267z" />
<glyph unicode="&#xca;" horiz-adv-x="798" />
<glyph unicode="&#xd0;" horiz-adv-x="1104" d="M43 516v208h1020v-208h-1020z" />
<glyph unicode="&#xd1;" horiz-adv-x="2303" d="M43 516v208h2219v-208h-2219z" />
<glyph unicode="&#xd2;" horiz-adv-x="634" d="M10 1293v245l59 262h232l-59 -262v-245h-232zM347 1293v245l58 262h231l-57 -262v-245h-232z" />
<glyph unicode="&#xd8;" horiz-adv-x="937" d="M-19 1065h267l191 -590l34 -160l31 160l187 590h266l-490 -1491h-266l134 426zM83 1412q0 66 47 112.5t112 46.5q66 0 113 -46.5t47 -112.5q0 -65 -46.5 -112.5t-113.5 -47.5q-65 0 -112 47.5t-47 112.5zM532 1412q0 66 47 112.5t114 46.5q65 0 112 -46.5t47 -112.5 q0 -65 -47 -112.5t-112 -47.5q-66 0 -113.5 47.5t-47.5 112.5z" />
<glyph unicode="&#xd9;" horiz-adv-x="937" d="M-124 1597h297l300 -603l298 603h302l-464 -932v-665h-266v665zM83 1864q0 65 47 112.5t112 47.5q66 0 113 -47.5t47 -112.5q0 -66 -46.5 -113t-113.5 -47q-65 0 -112 47t-47 113zM532 1864q0 65 47 112.5t114 47.5q65 0 112 -47.5t47 -112.5q0 -66 -47 -113t-112 -47 q-66 0 -113.5 47t-47.5 113z" />
<glyph unicode="&#xdd;" horiz-adv-x="937" d="M-124 1597h297l300 -603l298 603h302l-464 -932v-665h-266v665zM364 1704l175 324h221l-189 -324h-207z" />
<glyph unicode="&#xe3;" horiz-adv-x="634" d="M2 -315l57 262v244h233v-244l-58 -262h-232zM339 -315l57 262v244h232v-244l-57 -262h-232z" />
<glyph unicode="&#xe6;" horiz-adv-x="1069" d="M136 0v1597h866v-266h-600v-400h465v-266h-465v-399h600v-266h-866zM268 1704l169 322h248l169 -322h-208l-85 168l-84 -168h-209z" />
<glyph unicode="&#xe7;" horiz-adv-x="1422" d="M43 0l532 1597h266l533 -1597h-266l-135 398h-532l-132 -398h-266zM535 665h353l-177 532zM598 1704l175 324h221l-189 -324h-207z" />
<glyph unicode="&#xe8;" horiz-adv-x="1069" d="M136 0v1597h866v-266h-600v-400h465v-266h-465v-399h600v-266h-866zM171 1864q0 65 46.5 112.5t112.5 47.5q65 0 112.5 -47.5t47.5 -112.5q0 -66 -47 -113t-113 -47t-112.5 47t-46.5 113zM620 1864q0 65 46.5 112.5t113.5 47.5q66 0 112.5 -47.5t46.5 -112.5 q0 -66 -46.5 -113t-112.5 -47t-113 47t-47 113z" />
<glyph unicode="&#xea;" horiz-adv-x="536" d="M61 0v266h75v1065h-75v266h414v-266h-73v-1065h73v-266h-414zM177 1704l175 324h221l-189 -324h-207z" />
<glyph unicode="&#xec;" horiz-adv-x="536" d="M-115 1864q0 65 47 112.5t113 47.5q65 0 112.5 -47.5t47.5 -112.5q0 -66 -47.5 -113t-112.5 -47q-66 0 -113 47t-47 113zM61 0v266h75v1065h-75v266h414v-266h-73v-1065h73v-266h-414zM335 1864q0 65 46.5 112.5t112.5 47.5t113 -47.5t47 -112.5q0 -66 -46.5 -113 t-113.5 -47q-66 0 -112.5 47t-46.5 113z" />
<glyph unicode="&#xee;" horiz-adv-x="1669" d="M2 799q0 172 65 323.5t179 265.5t265 179t324 65t324 -65t264 -179t178 -265.5t65 -323.5q0 -173 -65 -324.5t-178 -265t-264 -178.5t-324 -65t-324 65t-265 178.5t-179 265t-65 324.5zM268 799q0 -118 45 -221t122 -180t180 -121.5t220 -44.5q118 0 221 44.5 t179.5 121.5t120.5 180t44 221q0 117 -44 220t-120.5 180t-180 122t-220.5 45t-220 -45t-180 -122t-122 -180t-45 -220zM748 1704l174 324h222l-189 -324h-207z" />
<glyph unicode="&#xef;" horiz-adv-x="1669" d="M2 799q0 172 65 323.5t179 265.5t265 179t324 65t324 -65t264 -179t178 -265.5t65 -323.5q0 -173 -65 -324.5t-178 -265t-264 -178.5t-324 -65t-324 65t-265 178.5t-179 265t-65 324.5zM268 799q0 -118 45 -221t122 -180t180 -121.5t220 -44.5q118 0 221 44.5 t179.5 121.5t120.5 180t44 221q0 117 -44 220t-120.5 180t-180 122t-220.5 45t-220 -45t-180 -122t-122 -180t-45 -220zM541 1704l168 322h250l167 -322h-208l-85 168l-83 -168h-209z" />
<glyph unicode="&#xf2;" horiz-adv-x="1226" d="M83 498v1099h266v-1099q0 -55 21.5 -103t57.5 -84t84.5 -57.5t103.5 -21.5q53 0 101.5 21.5t85 57.5t58 84t21.5 103v1099h266v-1099q0 -108 -42.5 -205t-115 -169.5t-169.5 -115t-205 -42.5q-111 0 -208 42.5t-169.5 115t-114 169.5t-41.5 205zM504 1704l175 324h222 l-190 -324h-207z" />
<glyph unicode="&#xf6;" d="M71 1178l161 324h224l160 -324h-194l-79 159l-77 -159h-195z" />
<glyph unicode="&#xfa;" horiz-adv-x="144" d="M-85 1412q0 66 46.5 112.5t113.5 46.5q65 0 112 -46.5t47 -112.5q0 -65 -47 -112.5t-112 -47.5q-66 0 -113 47.5t-47 112.5z" />
<glyph unicode="&#xfb;" horiz-adv-x="711" d="M113 1380q0 51 19 93.5t51 75t77 50t96 17.5t95.5 -17.5t78 -50t52.5 -75t19 -93.5t-19 -93.5t-52.5 -73.5t-78 -49t-95.5 -18t-96 18t-77 49t-51 73.5t-19 93.5zM262 1380q0 -38 26.5 -67t67.5 -29q42 0 68.5 29t26.5 67q0 41 -26.5 68.5t-68.5 27.5q-41 0 -67.5 -27.5 t-26.5 -68.5z" />
<glyph unicode="&#xfd;" horiz-adv-x="937" d="M-19 1065h267l191 -590l34 -160l31 160l187 590h266l-490 -1491h-266l134 426zM352 1178l174 324h228l-181 -324h-221z" />
<glyph unicode="&#xfe;" horiz-adv-x="276" d="M-100 -238q0 40 31 86t72.5 87t83 73.5t62.5 44.5l168 -53q-32 -21 -63.5 -50t-59.5 -58.5t-45 -58.5t-17 -48q0 -28 19.5 -42.5t67.5 -14.5q37 0 75 10l-30 -164q-10 -5 -26 -7t-29 -2q-140 0 -224.5 48t-84.5 149z" />
<glyph unicode="&#xff;" d="M71 1502h195l77 -162l79 162h194l-160 -324h-224z" />
<glyph unicode="&#x104;" horiz-adv-x="1422" d="M43 0l532 1597h266l533 -1597q-32 -21 -64 -50t-59.5 -58.5t-44.5 -58.5t-17 -48q0 -28 19 -42.5t68 -14.5q36 0 74 10l-29 -164q-11 -5 -27 -7t-28 -2q-141 0 -225 48t-84 149q0 28 15.5 60.5t41 64.5t56.5 60.5t60 52.5h-22l-135 398h-532l-132 -398h-266zM535 665h353 l-177 532z" />
<glyph unicode="&#x105;" horiz-adv-x="1262" d="M61 532q0 109 42 206t113 169.5t168.5 115t207.5 42.5q73 0 142 -25.5t124 -66.5v92h266v-805l67 -260q-32 -21 -64 -50t-60 -58.5t-44.5 -58.5t-16.5 -48q0 -28 19 -42.5t68 -14.5q36 0 74 10l-29 -164q-11 -5 -27 -7t-29 -2q-141 0 -225 48t-84 149q0 28 16 60.5 t41.5 64.5t56.5 60.5t60 52.5h-16l-30 118q-62 -54 -142 -86t-165 -32q-108 0 -205 41.5t-169.5 114t-115.5 169.5t-43 207zM326 532q0 -55 21 -105.5t57.5 -86t84.5 -57t103 -21.5t103.5 21.5t84 57t57 86t21.5 105.5q0 56 -21.5 104.5t-57 86t-83.5 59t-104 21.5 q-55 0 -103 -21.5t-84.5 -59t-57.5 -86t-21 -104.5z" />
<glyph unicode="&#x10c;" horiz-adv-x="1422" d="M0 792q0 173 65 324.5t178 264t264 177.5t324 65q147 0 279 -47t240 -131l-129 -240q-75 73 -174.5 114.5t-211.5 41.5q-117 0 -220 -44.5t-180 -121.5t-122 -180t-45 -220q0 -118 45 -220t122 -179t180 -121.5t220 -44.5q113 0 212 41.5t174 114.5l129 -239v-7 q-108 -87 -240 -134t-279 -47q-173 0 -324 65t-264 179t-178 265.5t-65 323.5zM509 2026h202l84 -169l85 169h202l-162 -322h-249z" />
<glyph unicode="&#x10d;" horiz-adv-x="1032" d="M66 532q0 118 45 221t121.5 180t180 121.5t219.5 44.5q90 0 171 -26.5t149 -73.5l-104 -260q-41 43 -96 68.5t-120 25.5q-63 0 -117.5 -23.5t-94.5 -64t-64 -96t-24 -117.5q0 -61 24 -116.5t64 -96t94.5 -64t117.5 -23.5q69 0 128.5 29t99.5 78l124 -250 q-73 -57 -162 -90t-190 -33q-117 0 -220 44.5t-179.5 121.5t-121.5 180t-45 220zM328 1502h196l77 -162l78 162h195l-161 -324h-223z" />
<glyph unicode="&#x10e;" horiz-adv-x="1435" d="M136 0v1597h633q130 -38 239.5 -113.5t189.5 -181t125 -233.5t45 -270q0 -143 -45 -271t-125 -233.5t-189.5 -181t-239.5 -113.5h-633zM260 2026h202l83 -169l85 169h203l-162 -322h-249zM398 266h326l-2 -6q83 30 151 82t118 122.5t78 154.5t28 176q0 91 -28 175.5 t-78 154.5t-118 123t-149 83h-326v-1065z" />
<glyph unicode="&#x10f;" horiz-adv-x="1323" d="M61 532q0 111 43 208t115.5 169.5t169.5 114t205 41.5q75 0 144 -26.5t122 -65.5v624h266v-1597h-266v92q-53 -39 -122 -65.5t-144 -26.5q-108 0 -205 41.5t-169.5 114t-115.5 169.5t-43 207zM328 532q0 -55 21 -105.5t57.5 -86t84.5 -57t103 -21.5t103.5 21.5t84 57 t57 86t21.5 105.5q0 56 -21.5 104.5t-57 86t-83.5 59t-104 21.5q-55 0 -103 -21.5t-84.5 -59t-57.5 -86t-21 -104.5zM1233 1258v380h206v-380h-206z" />
<glyph unicode="&#x118;" horiz-adv-x="1069" d="M136 0v1597h866v-266h-600v-400h465v-266h-465v-399h600v-266q-33 -21 -65 -50t-59.5 -58.5t-45 -58.5t-17.5 -48q0 -28 19.5 -42.5t68.5 -14.5q36 0 75 10l-31 -164q-10 -5 -26 -7t-29 -2q-140 0 -224.5 48t-84.5 149q0 28 16.5 60.5t42 64.5t56 60.5t60.5 52.5h-622z " />
<glyph unicode="&#x119;" horiz-adv-x="1154" d="M69 532q0 118 44.5 221t121 180t180 121.5t219.5 44.5q147 0 267.5 -67t199.5 -180v-419h-752q33 -90 109.5 -145.5t173.5 -55.5q53 0 124 5t134 13q75 8 151 16l-140 -266q-33 -21 -64.5 -50t-59 -58.5t-44.5 -58.5t-17 -48q0 -28 19 -42.5t68 -14.5q36 0 75 10 l-30 -164q-11 -5 -27 -7t-29 -2q-140 0 -224 48t-84 149q0 49 42.5 104t91.5 100q-116 2 -215.5 47.5t-174.5 122.5t-117 179t-42 217zM352 632h566q-28 90 -106.5 145.5t-177.5 55.5q-97 0 -175.5 -55.5t-106.5 -145.5z" />
<glyph unicode="&#x11a;" horiz-adv-x="1069" d="M136 0v1597h866v-266h-600v-400h465v-266h-465v-399h600v-266h-866zM285 2026h203l83 -169l85 169h202l-161 -322h-250z" />
<glyph unicode="&#x11b;" horiz-adv-x="1154" d="M69 532q0 118 44.5 221t121 180t180 121.5t219.5 44.5q147 0 267.5 -67t199.5 -180v-419h-752q33 -90 109.5 -145.5t173.5 -55.5q53 0 124 5t134 13q75 8 151 16l-140 -266q-64 -12 -109.5 -19t-77 -10t-49 -4t-31.5 -1q-117 0 -220 44.5t-179.5 121.5t-121 180 t-44.5 220zM347 1502h196l77 -162l79 162h193l-159 -324h-224zM352 632h566q-28 90 -106.5 145.5t-177.5 55.5q-97 0 -175.5 -55.5t-106.5 -145.5z" />
<glyph unicode="&#x139;" horiz-adv-x="1002" d="M136 0v1597h266v-1331h600v-266h-866zM179 1704l175 324h221l-189 -324h-207z" />
<glyph unicode="&#x13a;" horiz-adv-x="536" d="M136 0v1597h266v-1597h-266zM158 1704l174 324h221l-189 -324h-206z" />
<glyph unicode="&#x13d;" horiz-adv-x="1002" d="M136 0v1597h266v-1331h600v-266h-866zM551 1301v380h207v-380h-207z" />
<glyph unicode="&#x13e;" horiz-adv-x="600" d="M136 0v1597h266v-1597h-266zM509 1258v380h207v-380h-207z" />
<glyph unicode="&#x147;" horiz-adv-x="1535" d="M136 0v1597h266l732 -1111v1111h266v-1597h-266l-732 1114v-1114h-266zM482 2026h201l83 -169l86 169h203l-163 -322h-249z" />
<glyph unicode="&#x148;" horiz-adv-x="1203" d="M136 0v1065h266v-102q54 47 121 74.5t146 27.5q83 0 155 -31.5t127 -86.5t85.5 -127t30.5 -155v-665h-266v598q0 41 -16 78t-42.5 63.5t-64 43t-77.5 16.5t-76.5 -16.5t-63 -43t-43 -63.5t-16.5 -78v-598h-266zM337 1502h195l77 -162l79 162h194l-160 -324h-224z" />
<glyph unicode="&#x150;" horiz-adv-x="1669" d="M2 799q0 172 65 323.5t179 265.5t265 179t324 65t324 -65t264 -179t178 -265.5t65 -323.5q0 -173 -65 -324.5t-178 -265t-264 -178.5t-324 -65t-324 65t-265 178.5t-179 265t-65 324.5zM268 799q0 -118 45 -221t122 -180t180 -121.5t220 -44.5q118 0 221 44.5 t179.5 121.5t120.5 180t44 221q0 117 -44 220t-120.5 180t-180 122t-220.5 45t-220 -45t-180 -122t-122 -180t-45 -220zM571 1704l175 324h221l-189 -324h-207zM912 1704l174 324h221l-189 -324h-206z" />
<glyph unicode="&#x151;" horiz-adv-x="1268" d="M69 532q0 118 44.5 221t121 180t180 121.5t219.5 44.5q118 0 221.5 -44.5t180 -121.5t121 -180t44.5 -221q0 -117 -44.5 -220t-121 -180t-180 -121.5t-221.5 -44.5q-117 0 -220 44.5t-179.5 121.5t-121 180t-44.5 220zM335 532q0 -61 23.5 -116.5t63.5 -96t95.5 -64 t116.5 -23.5q62 0 117.5 23.5t96 64t64 96t23.5 116.5q0 62 -23.5 117.5t-64 96t-95.5 64t-118 23.5q-61 0 -116.5 -23.5t-95.5 -64t-63.5 -96t-23.5 -117.5zM368 1178l175 324h228l-181 -324h-222zM695 1178l174 324h228l-181 -324h-221z" />
<glyph unicode="&#x153;" horiz-adv-x="1109" d="M89 433v632h267v-632q0 -41 16 -77.5t42.5 -64t63 -43.5t78.5 -16q41 0 77 16t62.5 43.5t42.5 64t16 77.5v632h266v-632q0 -96 -36.5 -181.5t-100 -148t-147.5 -100t-180 -37.5q-95 0 -180.5 37.5t-149.5 100t-100.5 148t-36.5 181.5zM449 1178l175 324h228l-181 -324 h-222z" />
<glyph unicode="&#x154;" horiz-adv-x="1313" d="M142 0v1597h787q108 -77 175 -198t67 -269q0 -140 -62.5 -258t-167.5 -197l396 -675h-311l-387 665h-230v-665h-267zM409 931h422q36 40 56 91t20 108q0 58 -20 109.5t-56 91.5h-422v-400zM479 1704l175 324h222l-191 -324h-206z" />
<glyph unicode="&#x155;" d="M130 0v1065h254v-100q51 51 126.5 75.5t164.5 24.5v-266h-110q-39 0 -71 -14t-53.5 -37.5t-33 -53t-11.5 -62.5v-632h-266zM285 1178l175 324h228l-182 -324h-221z" />
<glyph unicode="&#x158;" horiz-adv-x="1313" d="M142 0v1597h787q108 -77 175 -198t67 -269q0 -140 -62.5 -258t-167.5 -197l396 -675h-311l-387 665h-230v-665h-267zM307 2026h202l83 -169l85 169h203l-162 -322h-249zM409 931h422q36 40 56 91t20 108q0 58 -20 109.5t-56 91.5h-422v-400z" />
<glyph unicode="&#x159;" d="M130 0v1065h254v-100q51 51 126.5 75.5t164.5 24.5v-266h-110q-39 0 -71 -14t-53.5 -37.5t-33 -53t-11.5 -62.5v-632h-266zM147 1502h196l76 -162l79 162h195l-161 -324h-223z" />
<glyph unicode="&#x160;" horiz-adv-x="1222" d="M77 77l83 253q53 -24 117 -41t124.5 -28t115 -18t92.5 -7q107 0 166.5 45t74 105.5t-12 124.5t-89.5 101l-313 183q-108 61 -162 158t-54 218q0 77 28 155t84.5 139.5t143 100t202.5 38.5q34 0 83 -3.5t105.5 -11.5t115 -20t114.5 -29l-77 -256q-42 13 -87 23t-87.5 17 t-81 10t-63.5 3q-98 0 -150.5 -37t-64 -89t14 -106.5t82.5 -88.5l303 -175q106 -59 170 -165.5t64 -236.5q0 -81 -28.5 -164.5t-90.5 -150.5t-156.5 -109.5t-226.5 -42.5q-49 0 -113 6.5t-136.5 19t-147 33t-142.5 46.5zM384 2026h202l83 -169l85 169h203l-162 -322h-250z " />
<glyph unicode="&#x161;" horiz-adv-x="870" d="M49 47l81 236q36 -13 79 -25.5t85.5 -21t80.5 -14t66 -5.5q45 0 72.5 19.5t35 48t-7.5 59t-55 54.5l-183 116q-69 40 -117 103t-48 165q0 71 24.5 129t69.5 99.5t106.5 65t136.5 23.5q19 0 51 -2t66 -5t67.5 -10t56.5 -13v-252q-43 9 -84 18q-36 6 -76 11.5t-70 5.5 q-49 0 -75.5 -17.5t-32.5 -40.5t10.5 -50.5t52.5 -46.5l164 -92q118 -63 156 -139t38 -157q0 -73 -22.5 -136t-68.5 -108.5t-114 -72t-159 -26.5q-41 0 -90 5t-100.5 16t-101 26t-94.5 34zM168 1502h196l77 -162l79 162h193l-160 -324h-223z" />
<glyph unicode="&#x164;" horiz-adv-x="802" d="M-130 1331v266h1065v-266h-400v-1331h-267v1331h-398zM118 2026h201l83 -169l86 169h203l-163 -322h-249z" />
<glyph unicode="&#x165;" horiz-adv-x="746" d="M10 799v266h201v283l262 249v-532h200v-266h-200v-401q0 -55 39 -93.5t95 -38.5h141l-139 -266q-83 0 -155 30.5t-127 85.5t-85.5 127t-30.5 155v401h-201zM596 1258v380h207v-380h-207z" />
<glyph unicode="&#x16e;" horiz-adv-x="1226" d="M83 498v1099h266v-1099q0 -55 21.5 -103t57.5 -84t84.5 -57.5t103.5 -21.5q53 0 101.5 21.5t85 57.5t58 84t21.5 103v1099h266v-1099q0 -108 -42.5 -205t-115 -169.5t-169.5 -115t-205 -42.5q-111 0 -208 42.5t-169.5 115t-114 169.5t-41.5 205zM370 1849q0 51 19.5 93.5 t51.5 74.5t77 50t96 18t95.5 -18t77.5 -50t52 -74.5t19 -93.5t-19 -93.5t-52 -74t-77.5 -49.5t-95.5 -18t-96 18t-77 49.5t-51.5 74t-19.5 93.5zM520 1849q0 -38 26.5 -67t67.5 -29q42 0 68.5 29t26.5 67q0 41 -26.5 68.5t-68.5 27.5q-41 0 -67.5 -27.5t-26.5 -68.5z" />
<glyph unicode="&#x16f;" horiz-adv-x="1109" d="M89 433v632h267v-632q0 -41 16 -77.5t42.5 -64t63 -43.5t78.5 -16q41 0 77 16t62.5 43.5t42.5 64t16 77.5v632h266v-632q0 -96 -36.5 -181.5t-100 -148t-147.5 -100t-180 -37.5q-95 0 -180.5 37.5t-149.5 100t-100.5 148t-36.5 181.5zM311 1380q0 51 19 93.5t51 75 t76.5 50t95.5 17.5t96.5 -17.5t78 -50t52 -75t19.5 -93.5t-19.5 -93.5t-52 -73.5t-77.5 -49t-97 -18q-51 0 -95.5 18t-76.5 49t-51 73.5t-19 93.5zM460 1380q0 -38 27 -67t66 -29q43 0 70 29t27 67q0 41 -27 68.5t-70 27.5q-40 0 -66.5 -27.5t-26.5 -68.5z" />
<glyph unicode="&#x170;" horiz-adv-x="1226" d="M83 498v1099h266v-1099q0 -55 21.5 -103t57.5 -84t84.5 -57.5t103.5 -21.5q53 0 101.5 21.5t85 57.5t58 84t21.5 103v1099h266v-1099q0 -108 -42.5 -205t-115 -169.5t-169.5 -115t-205 -42.5q-111 0 -208 42.5t-169.5 115t-114 169.5t-41.5 205zM341 1704l175 324h221 l-190 -324h-206zM681 1704l175 324h221l-189 -324h-207z" />
<glyph unicode="&#x171;" horiz-adv-x="1109" d="M89 433v632h267v-632q0 -41 16 -77.5t42.5 -64t63 -43.5t78.5 -16q41 0 77 16t62.5 43.5t42.5 64t16 77.5v632h266v-632q0 -96 -36.5 -181.5t-100 -148t-147.5 -100t-180 -37.5q-95 0 -180.5 37.5t-149.5 100t-100.5 148t-36.5 181.5zM264 1178l175 324h228l-181 -324 h-222zM590 1178l174 324h228l-181 -324h-221z" />
<glyph unicode="&#x178;" horiz-adv-x="1109" d="M89 433v632h267v-632q0 -41 16 -77.5t42.5 -64t63 -43.5t78.5 -16q41 0 77 16t62.5 43.5t42.5 64t16 77.5v632h266v-632q0 -96 -36.5 -181.5t-100 -148t-147.5 -100t-180 -37.5q-95 0 -180.5 37.5t-149.5 100t-100.5 148t-36.5 181.5zM171 1412q0 66 46.5 112.5 t112.5 46.5q65 0 112.5 -46.5t47.5 -112.5q0 -65 -47 -112.5t-113 -47.5t-112.5 47.5t-46.5 112.5zM620 1412q0 66 46.5 112.5t113.5 46.5q66 0 112.5 -46.5t46.5 -112.5q0 -65 -46.5 -112.5t-112.5 -47.5t-113 47.5t-47 112.5z" />
<glyph unicode="&#x17d;" horiz-adv-x="1073" d="M73 0v132l573 1199h-573v266h933v-134l-573 -1197h573v-266h-933zM256 2026h202l83 -169l85 169h203l-162 -322h-250z" />
<glyph unicode="&#x17e;" horiz-adv-x="860" d="M59 0v124l388 675h-388v266h754v-124l-387 -675h387v-266h-754zM164 1502h196l77 -162l79 162h193l-160 -324h-223z" />
<glyph unicode="&#x192;" horiz-adv-x="1069" d="M136 0v1597h866v-266h-600v-400h465v-266h-465v-399h600v-266h-866zM464 1704l175 324h221l-189 -324h-207z" />
<glyph unicode="&#x2010;" horiz-adv-x="659" d="M43 516v208h575v-208h-575z" />
<glyph unicode="&#x2011;" horiz-adv-x="659" d="M43 516v208h575v-208h-575z" />
<glyph unicode="&#x2012;" horiz-adv-x="659" d="M43 516v208h575v-208h-575z" />
<glyph unicode="&#x2013;" horiz-adv-x="1108" d="M43 516v208h1024v-208h-1024z" />
<glyph unicode="&#x2014;" horiz-adv-x="1268" d="M69 532q0 118 44.5 221t121 180t180 121.5t219.5 44.5q118 0 221.5 -44.5t180 -121.5t121 -180t44.5 -221q0 -117 -44.5 -220t-121 -180t-180 -121.5t-221.5 -44.5q-117 0 -220 44.5t-179.5 121.5t-121 180t-44.5 220zM335 532q0 -61 23.5 -116.5t63.5 -96t95.5 -64 t116.5 -23.5q62 0 117.5 23.5t96 64t64 96t23.5 116.5q0 62 -23.5 117.5t-64 96t-95.5 64t-118 23.5q-61 0 -116.5 -23.5t-95.5 -64t-63.5 -96t-23.5 -117.5zM522 1178l175 324h228l-181 -324h-222z" />
<glyph unicode="&#x2018;" horiz-adv-x="1154" d="M69 532q0 118 44.5 221t121 180t180 121.5t219.5 44.5q147 0 267.5 -67t199.5 -180v-419h-752q33 -90 109.5 -145.5t173.5 -55.5q53 0 124 5t134 13q75 8 151 16l-140 -266q-64 -12 -109.5 -19t-77 -10t-49 -4t-31.5 -1q-117 0 -220 44.5t-179.5 121.5t-121 180 t-44.5 220zM256 1412q0 66 46.5 112.5t112.5 46.5q65 0 112.5 -46.5t47.5 -112.5q0 -65 -46.5 -112.5t-113.5 -47.5q-66 0 -112.5 47.5t-46.5 112.5zM352 632h566q-28 90 -106.5 145.5t-177.5 55.5q-97 0 -175.5 -55.5t-106.5 -145.5zM705 1412q0 66 47 112.5t112 46.5 q66 0 113 -46.5t47 -112.5q0 -65 -46.5 -112.5t-113.5 -47.5q-65 0 -112 47.5t-47 112.5z" />
<glyph unicode="&#x2019;" horiz-adv-x="532" d="M134 0v1065h266v-1065h-266zM153 1178l175 324h228l-182 -324h-221z" />
<glyph unicode="&#x2020;" horiz-adv-x="1226" d="M83 498v1099h266v-1099q0 -55 21.5 -103t57.5 -84t84.5 -57.5t103.5 -21.5q53 0 101.5 21.5t85 57.5t58 84t21.5 103v1099h266v-1099q0 -108 -42.5 -205t-115 -169.5t-169.5 -115t-205 -42.5q-111 0 -208 42.5t-169.5 115t-114 169.5t-41.5 205zM228 1864 q0 65 46.5 112.5t113.5 47.5q65 0 112 -47.5t47 -112.5q0 -66 -47 -113t-112 -47q-66 0 -113 47t-47 113zM677 1864q0 65 47 112.5t113 47.5t112.5 -47.5t46.5 -112.5q0 -66 -46.5 -113t-112.5 -47q-65 0 -112.5 47t-47.5 113z" />
<glyph unicode="&#x2021;" horiz-adv-x="1262" d="M61 532q0 109 42 206t113 169.5t168.5 115t207.5 42.5q73 0 142 -25.5t124 -66.5v92h266v-805l67 -260h-260l-30 118q-62 -54 -142 -86t-165 -32q-108 0 -205 41.5t-169.5 114t-115.5 169.5t-43 207zM326 532q0 -55 21 -105.5t57.5 -86t84.5 -57t103 -21.5t103.5 21.5 t84 57t57 86t21.5 105.5q0 56 -21.5 104.5t-57 86t-83.5 59t-104 21.5q-55 0 -103 -21.5t-84.5 -59t-57.5 -86t-21 -104.5zM496 1178l175 324h228l-181 -324h-222z" />
<glyph unicode="&#x2022;" horiz-adv-x="532" d="M-118 1412q0 66 47 112.5t114 46.5q65 0 112.5 -46.5t47.5 -112.5q0 -65 -47.5 -112.5t-112.5 -47.5q-66 0 -113.5 47.5t-47.5 112.5zM134 0v1065h266v-1065h-266zM332 1412q0 66 47 112.5t113 46.5q65 0 112.5 -46.5t47.5 -112.5q0 -65 -47 -112.5t-113 -47.5t-113 47.5 t-47 112.5z" />
<glyph unicode="&#x2026;" horiz-adv-x="1669" d="M2 799q0 172 65 323.5t179 265.5t265 179t324 65t324 -65t264 -179t178 -265.5t65 -323.5q0 -173 -65 -324.5t-178 -265t-264 -178.5t-324 -65t-324 65t-265 178.5t-179 265t-65 324.5zM268 799q0 -118 45 -221t122 -180t180 -121.5t220 -44.5q118 0 221 44.5 t179.5 121.5t120.5 180t44 221q0 117 -44 220t-120.5 180t-180 122t-220.5 45t-220 -45t-180 -122t-122 -180t-45 -220zM449 1864q0 65 47 112.5t113 47.5t113 -47.5t47 -112.5q0 -66 -47 -113t-113 -47q-65 0 -112.5 47t-47.5 113zM899 1864q0 65 46.5 112.5t113.5 47.5 q65 0 112 -47.5t47 -112.5q0 -66 -47 -113t-112 -47q-66 0 -113 47t-47 113z" />
<glyph unicode="&#x20ac;" horiz-adv-x="1422" d="M43 0l532 1597h266l533 -1597h-266l-135 398h-532l-132 -398h-266zM326 1864q0 65 46.5 112.5t113.5 47.5q65 0 112.5 -47.5t47.5 -112.5q0 -66 -47.5 -113t-112.5 -47q-66 0 -113 47t-47 113zM535 665h353l-177 532zM775 1864q0 65 47 112.5t113 47.5q65 0 112.5 -47.5 t47.5 -112.5q0 -66 -46.5 -113t-113.5 -47q-66 0 -113 47t-47 113z" />
<glyph unicode="&#x2117;" horiz-adv-x="1735" d="M36 799q0 172 65 323.5t178 265.5t264.5 179t323.5 65q173 0 324 -65t264.5 -179t178.5 -265.5t65 -323.5q0 -173 -65 -324.5t-178.5 -265t-265 -178.5t-323.5 -65t-323.5 65t-264.5 178.5t-178 265t-65 324.5zM238 799q0 -130 49.5 -245t134 -200.5t200 -134 t245.5 -48.5t245 48.5t201.5 134t135.5 200.5t49 245t-49 245t-135.5 200t-202 134t-244.5 49q-130 0 -245.5 -49t-200 -134t-134 -200t-49.5 -245zM581 347v899h501q32 -21 58.5 -54t46.5 -71.5t32 -81.5t12 -84q0 -83 -42.5 -165.5t-104.5 -127.5h-300v-315h-203zM784 852 h202q17 14 27.5 40t10.5 55q0 33 -10 59.5t-28 43.5h-202v-198z" />
<glyph unicode="&#x2122;" horiz-adv-x="1268" d="M69 532q0 118 44.5 221t121 180t180 121.5t219.5 44.5q118 0 221.5 -44.5t180 -121.5t121 -180t44.5 -221q0 -117 -44.5 -220t-121 -180t-180 -121.5t-221.5 -44.5q-117 0 -220 44.5t-179.5 121.5t-121 180t-44.5 220zM335 532q0 -61 23.5 -116.5t63.5 -96t95.5 -64 t116.5 -23.5q62 0 117.5 23.5t96 64t64 96t23.5 116.5q0 62 -23.5 117.5t-64 96t-95.5 64t-118 23.5q-61 0 -116.5 -23.5t-95.5 -64t-63.5 -96t-23.5 -117.5zM360 1178l162 324h224l159 -324h-194l-79 159l-76 -159h-196z" />
<glyph unicode="&#x2212;" horiz-adv-x="787" d="M43 516v208h703v-208h-703z" />
<glyph unicode="&#xe000;" horiz-adv-x="1064" d="M0 0v1065h1065v-1065h-1065z" />
<glyph horiz-adv-x="293" d="M77 1258v380h206v-380h-206z" />
<glyph d="M49 2026h203l83 -169l84 169h203l-162 -322h-249z" />
<glyph d="M43 1704l168 322h249l168 -322h-209l-84 168l-83 -168h-209z" />
<glyph d="M151 1704l175 324h221l-189 -324h-207z" />
<glyph d="M92 1849q0 51 19 93.5t50.5 74.5t76.5 50t97 18q51 0 95.5 -18t77.5 -50t52 -74.5t19 -93.5t-19 -93.5t-52 -74t-77.5 -49.5t-95.5 -18t-96.5 18t-77 49.5t-50.5 74t-19 93.5zM240 1849q0 -38 27 -67t68 -29q43 0 69.5 29t26.5 67q0 41 -27.5 68.5t-68.5 27.5t-68 -27.5 t-27 -68.5z" />
<glyph d="M198 1384q0 57 39.5 96.5t97.5 39.5q55 0 95.5 -39.5t40.5 -96.5q0 -55 -40.5 -95.5t-95.5 -40.5q-57 0 -97 40.5t-40 95.5z" />
<glyph d="M24 1704l174 324h221l-189 -324h-206zM364 1704l175 324h221l-189 -324h-207z" />
<glyph horiz-adv-x="870" d="M53 1864q0 65 47 112.5t113 47.5t112.5 -47.5t46.5 -112.5q0 -66 -46.5 -113t-112.5 -47q-65 0 -112.5 47t-47.5 113zM502 1864q0 65 47 112.5t113 47.5t113.5 -47.5t47.5 -112.5q0 -66 -47.5 -113t-113.5 -47q-65 0 -112.5 47t-47.5 113z" />
<glyph horiz-adv-x="602" d="M-43 1384q0 57 39.5 96.5t97.5 39.5q55 0 95.5 -39.5t40.5 -96.5q0 -55 -40.5 -95.5t-95.5 -40.5q-58 0 -97.5 40.5t-39.5 95.5zM372 1384q0 57 39.5 96.5t97.5 39.5q55 0 96 -39.5t41 -96.5q0 -55 -40.5 -95.5t-96.5 -40.5q-58 0 -97.5 40.5t-39.5 95.5z" />
</font>
</defs>
</svg>
